<svg width="71" height="71" viewBox="0 0 71 71" fill="none" xmlns="http://www.w3.org/2000/svg">
<path fill-rule="evenodd" clip-rule="evenodd" d="M3.38563 38.7382C3.961 38.1628 4.89387 38.1628 5.46924 38.7382L17.2559 50.5248C17.8313 51.1002 17.8313 52.0331 17.2559 52.6084C16.6805 53.1838 15.7477 53.1838 15.1723 52.6084L3.38563 40.8218C2.81026 40.2464 2.81026 39.3135 3.38563 38.7382Z" fill="#00C389"/>
<path fill-rule="evenodd" clip-rule="evenodd" d="M36.0259 43.5429C36.6012 44.1182 36.6012 45.0511 36.0259 45.6265L23.1489 58.5034C22.5736 59.0788 21.6407 59.0788 21.0653 58.5034C20.4899 57.928 20.4899 56.9952 21.0653 56.4198L33.9423 43.5429C34.5176 42.9675 35.4505 42.9675 36.0259 43.5429Z" fill="#F5B6CD"/>
<path fill-rule="evenodd" clip-rule="evenodd" d="M52.6166 26.9511C53.192 27.5264 53.192 28.4593 52.6166 29.0347L36.0269 45.6244C35.4515 46.1998 34.5186 46.1998 33.9432 45.6244C33.3679 45.049 33.3679 44.1162 33.9432 43.5408L50.533 26.9511C51.1084 26.3757 52.0412 26.3757 52.6166 26.9511Z" fill="#9063CD"/>
<path fill-rule="evenodd" clip-rule="evenodd" d="M67.35 12.2186C67.9254 12.794 67.9254 13.7269 67.35 14.3022L52.6167 29.0356C52.0413 29.611 51.1085 29.611 50.5331 29.0356C49.9577 28.4602 49.9577 27.5273 50.5331 26.952L65.2664 12.2186C65.8418 11.6433 66.7747 11.6433 67.35 12.2186Z" fill="#00CCEA"/>
<path fill-rule="evenodd" clip-rule="evenodd" d="M12.2255 47.578C12.8008 47.0026 13.7337 47.0026 14.3091 47.578L23.1491 56.418C23.7245 56.9934 23.7245 57.9262 23.1491 58.5016C22.5737 59.077 21.6408 59.077 21.0655 58.5016L12.2255 49.6616C11.6501 49.0862 11.6501 48.1534 12.2255 47.578Z" fill="#FDDA24"/>
</svg>
